<svg width="500" height="500" viewBox="0 0 500 500" fill="none" xmlns="http://www.w3.org/2000/svg">
<g clip-path="url(#clip0_612_21)">
<path d="M181.082 250.02C181.082 311.958 231.472 362.357 293.423 362.357C355.374 362.357 405.784 311.958 405.784 250.02C405.784 188.081 355.374 137.701 293.423 137.701C231.472 137.701 181.082 188.081 181.082 250.02ZM230.071 250.02C230.071 215.076 258.492 186.68 293.423 186.68C328.374 186.68 356.795 215.095 356.795 250.02C356.795 284.963 328.374 313.379 293.423 313.379C258.492 313.379 230.071 284.944 230.071 250.02Z" fill="#1D71B8"/>
<path d="M8 250.02C8 261.886 17.621 271.505 29.4889 271.505H96.3368C107.091 370.748 191.356 448.296 293.424 448.296C321.864 448.296 348.846 442.171 373.33 431.343L406.764 489.23C412.698 499.502 425.833 503.034 436.126 497.102C446.4 491.169 449.933 478.036 444 467.745L410.489 409.704C459.651 373.59 491.759 315.53 491.759 250.001C491.759 184.453 459.651 126.431 410.489 90.3166L444.038 32.2182C449.972 21.9463 446.458 8.79445 436.165 2.86173C425.891 -3.07099 412.736 0.442562 406.802 10.7336L373.33 68.6785C348.865 57.8498 321.864 51.7443 293.424 51.7443C191.337 51.7443 107.072 129.273 96.3176 228.536H29.4889C17.621 228.536 8 238.155 8 250.02ZM144.096 250.02C144.096 167.711 211.098 100.742 293.424 100.742C375.769 100.742 442.751 167.73 442.751 250.02C442.751 332.349 375.75 399.337 293.424 399.337C211.098 399.337 144.096 332.349 144.096 250.02Z" fill="#1D71B8"/>
</g>
<defs>
<clipPath id="clip0_612_21">
<rect width="483.74" height="500" fill="white" transform="translate(8)"/>
</clipPath>
</defs>
</svg>
