<svg width="500" height="500" viewBox="0 0 500 500" fill="none" xmlns="http://www.w3.org/2000/svg">
<g clip-path="url(#clip0_410_17)">
<path d="M452.844 304.352L491.481 314.705C502.839 272.316 502.839 227.684 491.481 185.295L452.878 195.639C462.148 230.104 462.746 267.398 452.844 304.352Z" fill="#46B29D"/>
<path d="M491.481 185.295C480.123 142.906 457.807 104.254 426.777 73.2231L398.517 101.483C424.526 127.541 443.316 160.085 452.878 195.639L491.481 185.295Z" fill="#D75E72"/>
<path d="M426.777 73.2231C395.746 42.1923 357.094 19.8764 314.705 8.51831L304.352 47.1553C341.306 57.0571 373.304 76.2221 398.517 101.483L426.777 73.2231Z" fill="#46B29D"/>
<path d="M314.705 8.5183C272.316 -2.83976 227.684 -2.83976 185.295 8.51829L195.639 47.1215C230.105 37.852 267.398 37.2536 304.352 47.1553L314.705 8.5183Z" fill="#D75E72"/>
<path d="M185.296 8.51831C142.907 19.8764 104.254 42.1923 73.2236 73.2231L101.483 101.483C127.541 75.4733 160.086 56.6838 195.639 47.1216L185.296 8.51831Z" fill="#46B29D"/>
<path d="M101.483 101.482L73.2233 73.2229C42.1925 104.254 19.8766 142.906 8.51855 185.295L47.1556 195.648C57.0573 158.694 76.2223 126.696 101.483 101.482Z" fill="#D75E72"/>
<path d="M47.1556 195.648L8.51855 185.295C-2.83952 227.684 -2.83952 272.316 8.51855 314.704L47.1218 304.361C37.8522 269.895 37.2538 232.601 47.1556 195.648Z" fill="#46B29D"/>
<path d="M47.1218 304.361L8.51855 314.705C19.8766 357.093 42.1925 395.746 73.2233 426.776L101.483 398.517C75.4736 372.459 56.684 339.915 47.1218 304.361Z" fill="#D75E72"/>
<path d="M195.648 452.844C158.695 442.942 126.697 423.777 101.483 398.517L73.2236 426.776C104.254 457.807 142.907 480.123 185.296 491.481L195.648 452.844Z" fill="#46B29D"/>
<path d="M304.361 452.878C269.896 462.147 232.602 462.746 195.648 452.844L185.295 491.481C227.684 502.839 272.316 502.839 314.705 491.481L304.361 452.878Z" fill="#D75E72"/>
<path d="M398.517 398.517C372.459 424.526 339.915 443.316 304.361 452.878L314.705 491.481C357.094 480.123 395.746 457.807 426.777 426.777L398.517 398.517Z" fill="#46B29D"/>
<path d="M398.517 398.517C423.778 373.303 442.943 341.305 452.844 304.352L491.481 314.704C480.123 357.093 457.807 395.745 426.777 426.776L398.517 398.517Z" fill="#D75E72"/>
<path d="M394.889 288.823L452.845 304.352C462.385 268.745 462.385 231.254 452.845 195.648L394.913 211.17C401.534 235.789 401.962 262.427 394.889 288.823C394.889 288.823 394.889 288.823 394.889 288.823Z" fill="#F5EFCA"/>
<path d="M452.845 195.648C443.304 160.041 424.559 127.573 398.493 101.508L356.084 143.916C374.662 162.529 388.083 185.775 394.914 211.171L452.845 195.648Z" fill="#464F5D"/>
<path d="M398.493 101.507C372.427 75.4414 339.959 56.696 304.352 47.1553L288.823 105.111C315.219 112.183 338.075 125.873 356.084 143.916L398.493 101.507Z" fill="#F5EFCA"/>
<path d="M304.352 47.1551C268.746 37.6143 231.255 37.6143 195.648 47.1551L211.171 105.087C235.789 98.4654 262.428 98.038 288.823 105.111L304.352 47.1551Z" fill="#464F5D"/>
<path d="M195.648 47.1553C160.042 56.696 127.574 75.4414 101.508 101.507L143.916 143.916C162.529 125.338 185.775 111.917 211.171 105.087L195.648 47.1553Z" fill="#F5EFCA"/>
<path d="M143.916 143.916L101.508 101.507C75.4419 127.573 56.6965 160.041 47.1558 195.647L105.111 211.177C112.184 184.781 125.873 161.925 143.916 143.916Z" fill="#464F5D"/>
<path d="M105.112 211.177L47.1561 195.648C37.6153 231.254 37.6153 268.745 47.1561 304.352L105.087 288.829C98.4663 264.211 98.0389 237.572 105.112 211.177Z" fill="#F5EFCA"/>
<path d="M105.088 288.829L47.1562 304.352C56.697 339.958 75.4424 372.426 101.508 398.492L143.917 356.083C125.339 337.47 111.918 314.224 105.088 288.829Z" fill="#464F5D"/>
<path d="M143.917 356.083L101.508 398.492C127.574 424.558 160.042 443.303 195.649 452.844L211.178 394.888C184.782 387.816 161.927 374.126 143.917 356.083Z" fill="#F5EFCA"/>
<path d="M288.83 394.913C264.211 401.534 237.573 401.961 211.178 394.888L195.648 452.844C231.255 462.385 268.746 462.385 304.352 452.844L288.83 394.913Z" fill="#464F5D"/>
<path d="M356.084 356.083C337.471 374.661 314.225 388.082 288.83 394.913L304.353 452.844C339.959 443.303 372.427 424.558 398.493 398.492L356.084 356.083Z" fill="#F5EFCA"/>
<path d="M356.084 356.083C374.127 338.074 387.816 315.218 394.889 288.823L452.845 304.352C443.304 339.958 424.559 372.426 398.493 398.492L356.084 356.083Z" fill="#464F5D"/>
<path d="M360.111 279.504C360.2 279.183 360.288 278.861 360.374 278.539C365.67 258.774 365.481 238.831 360.74 220.327L394.889 211.177C401.704 236.61 401.704 263.389 394.889 288.823L360.111 279.504Z" fill="#46B29D"/>
<path d="M394.889 211.177C388.074 185.743 374.684 162.552 356.066 143.934L331.583 168.417C345.647 182.846 355.732 200.784 360.74 220.327L394.889 211.177Z" fill="#D75E72"/>
<path d="M356.066 143.934C337.447 125.315 314.256 111.926 288.823 105.111L280.022 137.957C300.32 143.581 317.849 154.326 331.583 168.417L356.066 143.934Z" fill="#46B29D"/>
<path d="M288.823 105.111C263.389 98.2963 236.61 98.2963 211.177 105.111L219.877 137.581C238.653 132.595 258.947 132.305 279.057 137.694C279.379 137.78 279.701 137.868 280.022 137.957L288.823 105.111Z" fill="#D75E72"/>
<path d="M211.177 105.111C185.743 111.926 162.552 125.316 143.934 143.934L167.703 167.704C182.102 153.24 200.151 142.819 219.877 137.581L211.177 105.111Z" fill="#46B29D"/>
<path d="M167.703 167.703L143.934 143.934C125.315 162.552 111.926 185.743 105.111 211.177L137.956 219.978C138.04 219.655 138.125 219.333 138.211 219.011C143.6 198.9 153.998 181.47 167.703 167.703Z" fill="#D75E72"/>
<path d="M137.957 219.978L105.112 211.177C98.2968 236.61 98.2968 263.389 105.112 288.822L138.556 279.861C133.22 260.921 132.679 240.369 137.957 219.978Z" fill="#46B29D"/>
<path d="M138.556 279.861L105.111 288.822C111.926 314.256 125.316 337.447 143.934 356.066L168.933 331.067C154.512 316.959 144.02 299.255 138.556 279.861Z" fill="#D75E72"/>
<path d="M220.496 360.111C220.173 360.028 219.851 359.943 219.529 359.856C199.763 354.56 182.587 344.425 168.933 331.067L143.934 356.066C162.553 374.684 185.744 388.074 211.177 394.889L220.496 360.111Z" fill="#46B29D"/>
<path d="M279.415 359.779C260.743 364.865 240.542 365.3 220.496 360.111L211.177 394.888C236.611 401.703 263.39 401.703 288.823 394.889L279.415 359.779Z" fill="#D75E72"/>
<path d="M330.364 330.364C316.225 344.388 298.63 354.546 279.416 359.779L288.823 394.889C314.256 388.074 337.448 374.684 356.066 356.066L330.364 330.364Z" fill="#46B29D"/>
<path d="M330.365 330.364L356.066 356.066C374.685 337.447 388.074 314.256 394.889 288.822L360.112 279.504C354.582 299.459 344.105 316.736 330.365 330.364Z" fill="#D75E72"/>
<path d="M360.374 278.54C365.599 259.041 365.599 238.51 360.374 219.011L293.099 237.038C295.347 244.486 295.691 252.606 293.715 260.678L360.374 278.54Z" fill="#F5EFCA"/>
<path d="M360.374 219.011C355.15 199.512 344.884 181.732 330.61 167.458L280.845 217.223C286.595 222.644 290.823 229.497 293.099 237.038L360.374 219.011Z" fill="#464F5D"/>
<path d="M330.61 167.458C316.336 153.184 298.556 142.919 279.057 137.694L260.678 206.285C261.001 206.364 261.324 206.447 261.647 206.533C269.095 208.529 275.603 212.28 280.846 217.223L330.61 167.458Z" fill="#F5EFCA"/>
<path d="M279.057 137.694C259.558 132.469 239.028 132.469 219.529 137.694L237.998 206.623C245.181 204.628 252.951 204.395 260.678 206.285L279.057 137.694Z" fill="#464F5D"/>
<path d="M219.529 137.694C200.03 142.919 182.25 153.184 167.976 167.458L218.435 217.918C223.888 212.563 230.635 208.668 237.999 206.623L219.529 137.694Z" fill="#F5EFCA"/>
<path d="M167.976 167.458C153.702 181.732 143.437 199.512 138.212 219.011L206.803 237.39C209.029 229.753 213.116 223.141 218.435 217.917L167.976 167.458Z" fill="#464F5D"/>
<path d="M206.803 237.39L138.211 219.011C132.987 238.51 132.987 259.041 138.211 278.54L206.191 260.324C204.533 253.313 204.538 245.801 206.533 238.353C206.62 238.031 206.71 237.709 206.803 237.39Z" fill="#F5EFCA"/>
<path d="M206.191 260.324L138.211 278.54C143.436 298.038 153.701 315.819 167.976 330.093L217.225 280.844C211.832 275.102 208.011 268.014 206.191 260.324Z" fill="#464F5D"/>
<path d="M217.224 280.844L167.976 330.093C182.25 344.367 200.03 354.632 219.529 359.857L237.39 293.198C229.411 290.872 222.551 286.515 217.224 280.844Z" fill="#F5EFCA"/>
<path d="M261.295 293.568C254.009 295.464 246.146 295.555 238.353 293.467C238.03 293.381 237.709 293.291 237.39 293.198L219.529 359.857C239.028 365.081 259.558 365.081 279.057 359.857L261.295 293.568Z" fill="#464F5D"/>
<path d="M282.083 281.566C276.371 287.361 269.17 291.519 261.295 293.568L279.057 359.857C298.556 354.632 316.336 344.367 330.61 330.093L282.083 281.566Z" fill="#F5EFCA"/>
<path d="M282.083 281.566C287.368 276.204 291.379 269.44 293.467 261.647C293.553 261.324 293.636 261.001 293.715 260.678L360.374 278.54C355.15 298.039 344.884 315.819 330.61 330.093L282.083 281.566Z" fill="#464F5D"/>
<path d="M293.467 261.646C287.034 285.652 262.359 299.898 238.353 293.466C214.347 287.034 200.101 262.359 206.533 238.353C212.966 214.347 237.641 200.1 261.647 206.533C285.653 212.965 299.899 237.64 293.467 261.646Z" fill="#D75E72"/>
</g>
<defs>
<clipPath id="clip0_410_17">
<rect width="500" height="500" fill="white"/>
</clipPath>
</defs>
</svg>
